<svg width="12" height="14" viewBox="0 0 12 14" fill="none" xmlns="http://www.w3.org/2000/svg">
<circle cx="5.13634" cy="12.1364" r="1.30455" fill="black" stroke="white" stroke-width="0.7"/>
<circle cx="3.86362" cy="10.2273" r="1.30455" fill="black" stroke="white" stroke-width="0.7"/>
<circle cx="7.04545" cy="10.2273" r="1.30455" fill="black" stroke="white" stroke-width="0.7"/>
<circle cx="1.95454" cy="7.68178" r="1.30455" fill="black" stroke="white" stroke-width="0.7"/>
<circle cx="3.22727" cy="4.50002" r="1.30455" fill="black" stroke="white" stroke-width="0.7"/>
<circle cx="5.13634" cy="7.68178" r="1.30455" fill="black" stroke="white" stroke-width="0.7"/>
<circle cx="8.31819" cy="7.04543" r="1.30455" fill="black" stroke="white" stroke-width="0.7"/>
<circle cx="6.40909" cy="4.50002" r="1.30455" fill="black" stroke="white" stroke-width="0.7"/>
<circle cx="9.59091" cy="4.50002" r="1.30455" fill="black" stroke="white" stroke-width="0.7"/>
<circle cx="8.31819" cy="1.95455" r="1.30455" fill="black" stroke="white" stroke-width="0.7"/>
<path d="M5.13637 12.1363L3.86364 9.90908L5.13637 7.36362M8.31819 7.04544L9.59092 4.49998H6.09092M8.31819 1.95453L6.09092 4.49998M5.13637 7.36362L6.09092 4.49998M5.13637 7.36362L7.04546 9.90908M6.09092 4.49998H3.22728C3.22728 4.49998 2.45158 6.2453 1.95455 7.36362" stroke="black" stroke-width="0.7" stroke-linecap="round" stroke-linejoin="round"/>
</svg>
