<svg width="19" height="19" viewBox="0 0 19 19" fill="none" xmlns="http://www.w3.org/2000/svg">
<circle cx="9.5" cy="9.5" r="9.5" fill="#B96CF5"/>
<circle cx="8.86362" cy="14.8181" r="1.30455" fill="black" stroke="white" stroke-width="0.7"/>
<circle cx="7.5909" cy="12.909" r="1.30455" fill="black" stroke="white" stroke-width="0.7"/>
<circle cx="10.7727" cy="12.909" r="1.30455" fill="black" stroke="white" stroke-width="0.7"/>
<circle cx="5.68182" cy="10.3635" r="1.30455" fill="black" stroke="white" stroke-width="0.7"/>
<circle cx="6.95454" cy="7.18178" r="1.30455" fill="black" stroke="white" stroke-width="0.7"/>
<circle cx="8.86362" cy="10.3635" r="1.30455" fill="black" stroke="white" stroke-width="0.7"/>
<circle cx="12.0455" cy="9.72719" r="1.30455" fill="black" stroke="white" stroke-width="0.7"/>
<circle cx="10.1364" cy="7.18178" r="1.30455" fill="black" stroke="white" stroke-width="0.7"/>
<circle cx="13.3182" cy="7.18178" r="1.30455" fill="black" stroke="white" stroke-width="0.7"/>
<circle cx="12.0455" cy="4.63631" r="1.30455" fill="black" stroke="white" stroke-width="0.7"/>
<path d="M8.86364 14.8181L7.59092 12.5908L8.86364 10.0454M12.0455 9.7272L13.3182 7.18175H9.81819M12.0455 4.63629L9.81819 7.18175M8.86364 10.0454L9.81819 7.18175M8.86364 10.0454L10.7727 12.5908M9.81819 7.18175H6.95455C6.95455 7.18175 6.17885 8.92706 5.68182 10.0454" stroke="black" stroke-width="0.7" stroke-linecap="round" stroke-linejoin="round"/>
</svg>
