<svg width="32" height="16" viewBox="0 0 32 16" fill="none" xmlns="http://www.w3.org/2000/svg">
<rect width="32" height="16" fill="#B96CF5"/>
<circle cx="15.1363" cy="13.1364" r="1.30455" fill="black" stroke="white" stroke-width="0.7"/>
<circle cx="13.8636" cy="11.2273" r="1.30455" fill="black" stroke="white" stroke-width="0.7"/>
<circle cx="17.0455" cy="11.2273" r="1.30455" fill="black" stroke="white" stroke-width="0.7"/>
<circle cx="11.9545" cy="8.68178" r="1.30455" fill="black" stroke="white" stroke-width="0.7"/>
<circle cx="13.2273" cy="5.50002" r="1.30455" fill="black" stroke="white" stroke-width="0.7"/>
<circle cx="15.1363" cy="8.68178" r="1.30455" fill="black" stroke="white" stroke-width="0.7"/>
<circle cx="18.3182" cy="8.04543" r="1.30455" fill="black" stroke="white" stroke-width="0.7"/>
<circle cx="16.4091" cy="5.50002" r="1.30455" fill="black" stroke="white" stroke-width="0.7"/>
<circle cx="19.5909" cy="5.50002" r="1.30455" fill="black" stroke="white" stroke-width="0.7"/>
<circle cx="18.3182" cy="2.95455" r="1.30455" fill="black" stroke="white" stroke-width="0.7"/>
<path d="M15.1364 13.1363L13.8636 10.9091L15.1364 8.36362M18.3182 8.04544L19.5909 5.49998H16.0909M18.3182 2.95453L16.0909 5.49998M15.1364 8.36362L16.0909 5.49998M15.1364 8.36362L17.0455 10.9091M16.0909 5.49998H13.2273C13.2273 5.49998 12.4516 7.2453 11.9546 8.36362" stroke="black" stroke-width="0.7" stroke-linecap="round" stroke-linejoin="round"/>
</svg>
